<svg width="60" height="60" viewBox="0 0 60 60" fill="none" xmlns="http://www.w3.org/2000/svg">
<g filter="url(#filter0_dd_1809_7653)">
<path d="M29.9957 49.811C40.9396 49.811 49.8114 40.9392 49.8114 29.9953C49.8114 19.0515 40.9396 10.1797 29.9957 10.1797C19.0518 10.1797 10.1801 19.0515 10.1801 29.9953C10.1801 40.9392 19.0518 49.811 29.9957 49.811Z" fill="#F1F1F1"/>
</g>
<path d="M38.3304 22.0912C36.7536 21.3372 35.089 20.8022 33.379 20.5C33.145 20.9369 32.9333 21.3865 32.7448 21.8467C30.9234 21.56 29.0711 21.56 27.2497 21.8467C27.0611 21.3865 26.8493 20.937 26.6155 20.5C24.9044 20.8047 23.2387 21.341 21.6603 22.0952C18.5267 26.9378 17.6773 31.6602 18.102 36.3156C19.9371 37.7318 21.9911 38.8089 24.1747 39.5C24.6664 38.8092 25.1014 38.0764 25.4753 37.3094C24.7652 37.0323 24.0799 36.6906 23.4272 36.288C23.5989 36.1578 23.7669 36.0238 23.9293 35.8936C25.8285 36.8266 27.9013 37.3103 30.0001 37.3103C32.0988 37.3103 34.1717 36.8266 36.0709 35.8936C36.2351 36.0336 36.4031 36.1677 36.573 36.288C35.919 36.6912 35.2324 37.0336 34.5211 37.3113C34.8945 38.0781 35.3296 38.8102 35.8217 39.5C38.0072 38.8117 40.0627 37.7351 41.8981 36.3176V36.3176C42.3965 30.9188 41.0468 26.2398 38.3304 22.0912ZM26.0133 33.4526C24.8297 33.4526 23.8519 32.3306 23.8519 30.9504C23.8519 29.5702 24.7957 28.4384 26.0095 28.4384C27.2233 28.4384 28.1936 29.5702 28.1728 30.9504C28.152 32.3306 27.2195 33.4526 26.0133 33.4526ZM33.9869 33.4526C32.8014 33.4526 31.8273 32.3306 31.8273 30.9504C31.8273 29.5702 32.7712 28.4384 33.9869 28.4384C35.2025 28.4384 36.1652 29.5702 36.1445 30.9504C36.1237 32.3306 35.1931 33.4526 33.9869 33.4526Z" fill="#8B8B8B"/>
<defs>
<filter id="filter0_dd_1809_7653" x="0.320054" y="0.319688" width="59.3513" height="59.3509" filterUnits="userSpaceOnUse" color-interpolation-filters="sRGB">
<feFlood flood-opacity="0" result="BackgroundImageFix"/>
<feColorMatrix in="SourceAlpha" type="matrix" values="0 0 0 0 0 0 0 0 0 0 0 0 0 0 0 0 0 0 127 0" result="hardAlpha"/>
<feOffset dx="2.43" dy="2.43"/>
<feGaussianBlur stdDeviation="3.715"/>
<feComposite in2="hardAlpha" operator="out"/>
<feColorMatrix type="matrix" values="0 0 0 0 0.682353 0 0 0 0 0.682353 0 0 0 0 0.752941 0 0 0 0.4 0"/>
<feBlend mode="normal" in2="BackgroundImageFix" result="effect1_dropShadow_1809_7653"/>
<feColorMatrix in="SourceAlpha" type="matrix" values="0 0 0 0 0 0 0 0 0 0 0 0 0 0 0 0 0 0 127 0" result="hardAlpha"/>
<feOffset dx="-2.43" dy="-2.43"/>
<feGaussianBlur stdDeviation="3.715"/>
<feComposite in2="hardAlpha" operator="out"/>
<feColorMatrix type="matrix" values="0 0 0 0 1 0 0 0 0 1 0 0 0 0 1 0 0 0 0.9 0"/>
<feBlend mode="normal" in2="effect1_dropShadow_1809_7653" result="effect2_dropShadow_1809_7653"/>
<feBlend mode="normal" in="SourceGraphic" in2="effect2_dropShadow_1809_7653" result="shape"/>
</filter>
</defs>
</svg>
