<svg width="24" height="20" viewBox="0 0 24 20" fill="none" xmlns="http://www.w3.org/2000/svg">
<path d="M20.3304 2.09122C18.7536 1.33715 17.089 0.80219 15.379 0.5C15.145 0.936922 14.9333 1.38646 14.7448 1.84672C12.9234 1.56003 11.0711 1.56003 9.24972 1.84672C9.06106 1.3865 8.84935 0.936974 8.61546 0.5C6.90444 0.804741 5.2387 1.34097 3.66029 2.09516C0.526737 6.93784 -0.32272 11.6602 0.102008 16.3156C1.9371 17.7318 3.99108 18.8089 6.17468 19.5C6.66637 18.8092 7.10144 18.0764 7.4753 17.3094C6.76521 17.0323 6.07986 16.6906 5.42716 16.288C5.59894 16.1578 5.76694 16.0238 5.92929 15.8936C7.82848 16.8266 9.90135 17.3103 12.0001 17.3103C14.0988 17.3103 16.1717 16.8266 18.0709 15.8936C18.2351 16.0336 18.4031 16.1677 18.573 16.288C17.919 16.6912 17.2324 17.0336 16.5211 17.3113C16.8945 18.0781 17.3296 18.8102 17.8217 19.5C20.0072 18.8117 22.0627 17.7351 23.8981 16.3176V16.3176C24.3965 10.9188 23.0468 6.23983 20.3304 2.09122ZM8.01329 13.4526C6.82971 13.4526 5.85189 12.3306 5.85189 10.9504C5.85189 9.57015 6.79573 8.43836 8.00951 8.43836C9.22329 8.43836 10.1936 9.57015 10.1728 10.9504C10.152 12.3306 9.21952 13.4526 8.01329 13.4526ZM15.9869 13.4526C14.8014 13.4526 13.8273 12.3306 13.8273 10.9504C13.8273 9.57015 14.7712 8.43836 15.9869 8.43836C17.2025 8.43836 18.1652 9.57015 18.1445 10.9504C18.1237 12.3306 17.1931 13.4526 15.9869 13.4526Z" fill="#8B8B8B"/>
</svg>
