<svg width="60" height="60" viewBox="0 0 60 60" fill="none" xmlns="http://www.w3.org/2000/svg">
<g filter="url(#filter0_dd_1766_7644)">
<path d="M29.9957 49.811C40.9396 49.811 49.8114 40.9392 49.8114 29.9953C49.8114 19.0515 40.9396 10.1797 29.9957 10.1797C19.0518 10.1797 10.1801 19.0515 10.1801 29.9953C10.1801 40.9392 19.0518 49.811 29.9957 49.811Z" fill="#F1F1F1"/>
</g>
<path d="M25.2778 21C22.3676 21 20 23.3676 20 26.2778V34.7222C20 37.6324 22.3676 40 25.2778 40H33.7222C36.6324 40 39 37.6324 39 34.7222V26.2778C39 23.3676 36.6324 21 33.7222 21H25.2778ZM25.2778 23.1111H33.7222C35.4681 23.1111 36.8889 24.5319 36.8889 26.2778V34.7222C36.8889 36.4681 35.4681 37.8889 33.7222 37.8889H25.2778C23.5319 37.8889 22.1111 36.4681 22.1111 34.7222V26.2778C22.1111 24.5319 23.5319 23.1111 25.2778 23.1111ZM34.7778 24.1667C34.4978 24.1667 34.2293 24.2779 34.0314 24.4758C33.8334 24.6738 33.7222 24.9423 33.7222 25.2222C33.7222 25.5022 33.8334 25.7707 34.0314 25.9686C34.2293 26.1666 34.4978 26.2778 34.7778 26.2778C35.0577 26.2778 35.3262 26.1666 35.5242 25.9686C35.7221 25.7707 35.8333 25.5022 35.8333 25.2222C35.8333 24.9423 35.7221 24.6738 35.5242 24.4758C35.3262 24.2779 35.0577 24.1667 34.7778 24.1667ZM29.5 25.2222C26.5898 25.2222 24.2222 27.5898 24.2222 30.5C24.2222 33.4102 26.5898 35.7778 29.5 35.7778C32.4102 35.7778 34.7778 33.4102 34.7778 30.5C34.7778 27.5898 32.4102 25.2222 29.5 25.2222ZM29.5 27.3333C31.2459 27.3333 32.6667 28.7541 32.6667 30.5C32.6667 32.2459 31.2459 33.6667 29.5 33.6667C27.7541 33.6667 26.3333 32.2459 26.3333 30.5C26.3333 28.7541 27.7541 27.3333 29.5 27.3333Z" fill="#8B8B8B"/>
<defs>
<filter id="filter0_dd_1766_7644" x="0.320054" y="0.319688" width="59.3513" height="59.3509" filterUnits="userSpaceOnUse" color-interpolation-filters="sRGB">
<feFlood flood-opacity="0" result="BackgroundImageFix"/>
<feColorMatrix in="SourceAlpha" type="matrix" values="0 0 0 0 0 0 0 0 0 0 0 0 0 0 0 0 0 0 127 0" result="hardAlpha"/>
<feOffset dx="2.43" dy="2.43"/>
<feGaussianBlur stdDeviation="3.715"/>
<feComposite in2="hardAlpha" operator="out"/>
<feColorMatrix type="matrix" values="0 0 0 0 0.682353 0 0 0 0 0.682353 0 0 0 0 0.752941 0 0 0 0.4 0"/>
<feBlend mode="normal" in2="BackgroundImageFix" result="effect1_dropShadow_1766_7644"/>
<feColorMatrix in="SourceAlpha" type="matrix" values="0 0 0 0 0 0 0 0 0 0 0 0 0 0 0 0 0 0 127 0" result="hardAlpha"/>
<feOffset dx="-2.43" dy="-2.43"/>
<feGaussianBlur stdDeviation="3.715"/>
<feComposite in2="hardAlpha" operator="out"/>
<feColorMatrix type="matrix" values="0 0 0 0 1 0 0 0 0 1 0 0 0 0 1 0 0 0 0.9 0"/>
<feBlend mode="normal" in2="effect1_dropShadow_1766_7644" result="effect2_dropShadow_1766_7644"/>
<feBlend mode="normal" in="SourceGraphic" in2="effect2_dropShadow_1766_7644" result="shape"/>
</filter>
</defs>
</svg>
