<svg width="21" height="20" viewBox="0 0 21 20" fill="none" xmlns="http://www.w3.org/2000/svg">
<path fill-rule="evenodd" clip-rule="evenodd" d="M11.4584 8.30822C11.5061 8.26204 11.5512 8.21319 11.5935 8.16191C12.6946 6.55603 14.2668 6.08421 16.1012 6.36557C18.2205 6.69194 19.577 8.17576 19.9233 10.4465C20.0054 10.9837 20.0465 11.5263 20.0462 12.0697C20.0462 14.3301 20.041 16.5904 20.0506 18.8508C20.0506 19.1053 19.99 19.1806 19.7285 19.1772C18.5442 19.1628 17.3611 19.1628 16.1791 19.1772C15.9194 19.1772 15.8536 19.1062 15.8545 18.8508C15.864 16.7428 15.8605 14.6348 15.8588 12.5259C15.8698 12.0474 15.813 11.5697 15.69 11.1071C15.2571 9.6189 13.5655 9.09601 12.3596 10.0864C11.7086 10.6205 11.4532 11.3269 11.4584 12.1589C11.4688 14.15 11.4584 16.1411 11.4584 18.1253C11.4584 18.3851 11.4437 18.6448 11.4584 18.9045C11.4749 19.1304 11.3831 19.1737 11.1788 19.172C9.97198 19.1645 8.76576 19.1645 7.56012 19.172C7.34109 19.172 7.26231 19.1296 7.26491 18.8889C7.28222 17.0963 7.29059 15.3031 7.29002 13.5094C7.29002 11.3036 7.28367 9.09746 7.27097 6.89105C7.27097 6.64952 7.31945 6.57853 7.56964 6.58113C8.77557 6.59498 9.98151 6.59239 11.1883 6.58113C11.4056 6.58113 11.4662 6.64433 11.4593 6.85556C11.448 7.31525 11.4584 7.77408 11.4584 8.30822Z" fill="#8B8B8B"/>
<path fill-rule="evenodd" clip-rule="evenodd" d="M4.97515 12.8817C4.97515 14.8728 4.97082 16.8578 4.98034 18.8455C4.98034 19.0922 4.93186 19.1805 4.66263 19.1771C3.46708 19.1606 2.27241 19.165 1.07773 19.1771C0.856108 19.1771 0.780792 19.1234 0.780792 18.8905C0.786564 14.8811 0.786564 10.8723 0.780792 6.86412C0.780792 6.65549 0.831869 6.58536 1.05089 6.58796C2.26692 6.59835 3.48353 6.59835 4.70072 6.58796C4.94398 6.58796 4.98121 6.67453 4.98034 6.88836C4.97255 8.88468 4.97515 10.8836 4.97515 12.8817Z" fill="#8B8B8B"/>
<path fill-rule="evenodd" clip-rule="evenodd" d="M2.91213 0.526368C4.51542 0.526368 5.55687 1.79809 5.17682 3.28711C4.88941 4.41252 3.72676 5.05921 2.38492 4.84538C0.959098 4.61423 0.163514 3.22304 0.688998 1.87774C1.0171 1.03367 1.85684 0.525503 2.91213 0.526368Z" fill="#8B8B8B"/>
</svg>
