<svg width="60" height="60" viewBox="0 0 60 60" fill="none" xmlns="http://www.w3.org/2000/svg">
<g filter="url(#filter0_dd_1766_7868)">
<path d="M29.9957 49.811C40.9396 49.811 49.8114 40.9392 49.8114 29.9953C49.8114 19.0515 40.9396 10.1797 29.9957 10.1797C19.0518 10.1797 10.1801 19.0515 10.1801 29.9953C10.1801 40.9392 19.0518 49.811 29.9957 49.811Z" fill="#F1F1F1"/>
</g>
<path fill-rule="evenodd" clip-rule="evenodd" d="M31.4584 28.3082C31.5061 28.262 31.5512 28.2132 31.5935 28.1619C32.6946 26.556 34.2668 26.0842 36.1012 26.3656C38.2205 26.6919 39.577 28.1758 39.9233 30.4465C40.0054 30.9837 40.0465 31.5263 40.0462 32.0697C40.0462 34.3301 40.041 36.5904 40.0506 38.8508C40.0506 39.1053 39.99 39.1806 39.7285 39.1772C38.5442 39.1628 37.3611 39.1628 36.1791 39.1772C35.9194 39.1772 35.8536 39.1062 35.8545 38.8508C35.864 36.7428 35.8605 34.6348 35.8588 32.5259C35.8698 32.0474 35.813 31.5697 35.69 31.1071C35.2571 29.6189 33.5655 29.096 32.3596 30.0864C31.7086 30.6205 31.4532 31.3269 31.4584 32.1589C31.4688 34.15 31.4584 36.1411 31.4584 38.1253C31.4584 38.3851 31.4437 38.6448 31.4584 38.9045C31.4749 39.1304 31.3831 39.1737 31.1788 39.172C29.972 39.1645 28.7658 39.1645 27.5601 39.172C27.3411 39.172 27.2623 39.1296 27.2649 38.8889C27.2822 37.0963 27.2906 35.3031 27.29 33.5094C27.29 31.3036 27.2837 29.0975 27.271 26.8911C27.271 26.6495 27.3194 26.5785 27.5696 26.5811C28.7756 26.595 29.9815 26.5924 31.1883 26.5811C31.4056 26.5811 31.4662 26.6443 31.4593 26.8556C31.448 27.3153 31.4584 27.7741 31.4584 28.3082Z" fill="#8B8B8B"/>
<path fill-rule="evenodd" clip-rule="evenodd" d="M24.9751 32.8817C24.9751 34.8728 24.9708 36.8578 24.9803 38.8455C24.9803 39.0922 24.9319 39.1805 24.6626 39.1771C23.4671 39.1606 22.2724 39.165 21.0777 39.1771C20.8561 39.1771 20.7808 39.1234 20.7808 38.8905C20.7866 34.8811 20.7866 30.8723 20.7808 26.8641C20.7808 26.6555 20.8319 26.5854 21.0509 26.588C22.2669 26.5983 23.4835 26.5983 24.7007 26.588C24.944 26.588 24.9812 26.6745 24.9803 26.8884C24.9726 28.8847 24.9751 30.8836 24.9751 32.8817Z" fill="#8B8B8B"/>
<path fill-rule="evenodd" clip-rule="evenodd" d="M22.9121 20.5264C24.5154 20.5264 25.5569 21.7981 25.1768 23.2871C24.8894 24.4125 23.7268 25.0592 22.3849 24.8454C20.9591 24.6142 20.1635 23.223 20.689 21.8777C21.0171 21.0337 21.8568 20.5255 22.9121 20.5264Z" fill="#8B8B8B"/>
<defs>
<filter id="filter0_dd_1766_7868" x="0.320054" y="0.319688" width="59.3513" height="59.3509" filterUnits="userSpaceOnUse" color-interpolation-filters="sRGB">
<feFlood flood-opacity="0" result="BackgroundImageFix"/>
<feColorMatrix in="SourceAlpha" type="matrix" values="0 0 0 0 0 0 0 0 0 0 0 0 0 0 0 0 0 0 127 0" result="hardAlpha"/>
<feOffset dx="2.43" dy="2.43"/>
<feGaussianBlur stdDeviation="3.715"/>
<feComposite in2="hardAlpha" operator="out"/>
<feColorMatrix type="matrix" values="0 0 0 0 0.682353 0 0 0 0 0.682353 0 0 0 0 0.752941 0 0 0 0.4 0"/>
<feBlend mode="normal" in2="BackgroundImageFix" result="effect1_dropShadow_1766_7868"/>
<feColorMatrix in="SourceAlpha" type="matrix" values="0 0 0 0 0 0 0 0 0 0 0 0 0 0 0 0 0 0 127 0" result="hardAlpha"/>
<feOffset dx="-2.43" dy="-2.43"/>
<feGaussianBlur stdDeviation="3.715"/>
<feComposite in2="hardAlpha" operator="out"/>
<feColorMatrix type="matrix" values="0 0 0 0 1 0 0 0 0 1 0 0 0 0 1 0 0 0 0.9 0"/>
<feBlend mode="normal" in2="effect1_dropShadow_1766_7868" result="effect2_dropShadow_1766_7868"/>
<feBlend mode="normal" in="SourceGraphic" in2="effect2_dropShadow_1766_7868" result="shape"/>
</filter>
</defs>
</svg>
