<svg width="205" height="26" viewBox="0 0 205 26" fill="none" xmlns="http://www.w3.org/2000/svg">
<path d="M15.276 1.436L10.57 16.36L5.76 1.462L0.872 1.436V20H3.966V4.998H3.992L8.854 20H12.182L17.018 4.998H17.07V20H20.138V1.436H15.276ZM28.4488 20.364C32.4268 20.364 35.3648 17.504 35.3648 13.292C35.3648 9.08 32.4268 6.194 28.4488 6.194C24.4708 6.194 21.5328 9.08 21.5328 13.292C21.5328 17.504 24.4708 20.364 28.4488 20.364ZM28.4488 17.92C26.2128 17.92 24.5488 15.996 24.5488 13.292C24.5488 10.562 26.2388 8.664 28.4488 8.664C30.6848 8.664 32.3488 10.562 32.3488 13.292C32.3488 15.996 30.6848 17.92 28.4488 17.92ZM51.2883 6.194C49.3643 6.194 47.8303 7.52 47.4403 9.054C46.9723 7.234 45.4903 6.194 43.4363 6.194C41.3563 6.194 40.0043 7.39 39.5883 9.288H39.5623V6.558H36.5983V20H39.5623V13.084C39.5623 10.458 40.3423 8.664 42.3703 8.664C44.2423 8.664 44.8403 10.094 44.8403 12.122V20H47.7523V13.084C47.7523 9.86 48.8703 8.664 50.5083 8.664C52.3023 8.664 53.0043 9.86 53.0043 12.122V20H55.9423V11.03C55.9423 7.988 54.3303 6.194 51.2883 6.194ZM70.3486 13.526C70.3226 9.73 68.4506 6.194 63.8746 6.194C59.9486 6.194 57.0886 9.158 57.0886 13.24C57.0886 17.478 59.8446 20.364 63.8746 20.364C67.0466 20.364 69.3606 18.752 70.1666 16.022H67.1766C66.6826 17.374 65.4086 17.946 63.8746 17.946C61.7686 17.946 60.2086 16.542 60.0006 14.098H70.3486V13.526ZM60.0526 11.914C60.3646 9.86 61.7686 8.534 63.8486 8.534C65.9286 8.534 67.1506 9.808 67.3586 11.914H60.0526ZM78.6403 6.194C76.4043 6.194 75.1043 7.546 74.6363 9.132V6.558H71.6463V20H74.6623V13.188C74.6623 9.886 76.0403 8.664 77.8863 8.664C79.7843 8.664 80.4863 10.042 80.4863 12.226V20H83.4763V11.602C83.4763 8.508 82.1243 6.194 78.6403 6.194ZM91.7463 8.898V6.558H89.1203V2.086H89.0163L86.1303 3.542V6.558H84.0503V8.898H86.1303V15.736C86.1303 18.102 87.0923 20 90.0303 20H91.4603V17.686H90.6543C89.5103 17.686 89.1203 16.724 89.1203 15.372V8.898H91.7463ZM100.136 10.588H102.996C102.684 7.676 100.5 6.194 97.5879 6.194C94.8319 6.194 92.4399 7.832 92.4399 10.276C92.4399 12.72 94.5979 13.734 96.7559 14.228C98.9139 14.748 100.24 14.956 100.24 16.282C100.24 17.53 99.0439 18.05 97.7699 18.05C96.2099 18.05 95.2999 17.374 95.0399 15.892H92.0499C92.3619 19.116 94.9619 20.364 97.7179 20.364C100.682 20.364 103.256 18.804 103.256 16.126C103.256 13.968 101.54 12.85 99.1739 12.33C96.9119 11.81 95.3519 11.446 95.3519 10.146C95.3519 9.184 96.3659 8.482 97.5359 8.482C98.7579 8.482 99.9279 9.106 100.136 10.588ZM114.999 20.364C118.977 20.364 121.915 17.504 121.915 13.292C121.915 9.08 118.977 6.194 114.999 6.194C111.021 6.194 108.083 9.08 108.083 13.292C108.083 17.504 111.021 20.364 114.999 20.364ZM114.999 17.92C112.763 17.92 111.099 15.996 111.099 13.292C111.099 10.562 112.789 8.664 114.999 8.664C117.235 8.664 118.899 10.562 118.899 13.292C118.899 15.996 117.235 17.92 114.999 17.92ZM128.687 3.802H129.415V1.436H127.881C124.969 1.436 124.111 3.074 124.111 5.44V6.558H122.239V8.898H124.111V20H127.075V8.898H129.363V6.558H127.075V5.57C127.075 4.166 127.517 3.802 128.687 3.802ZM145.108 6.922H148.254C148.02 2.866 145.316 0.994 141.546 0.994C138.192 0.994 134.864 2.762 134.916 6.324C134.968 9.964 138.114 11.056 141.182 11.888C143.548 12.538 145.628 12.928 145.628 14.956C145.628 16.88 143.808 17.816 141.728 17.816C139.31 17.816 137.542 16.464 137.464 13.968H134.24C134.448 18.388 137.62 20.442 141.728 20.442C145.134 20.442 148.748 18.726 148.748 14.93C148.748 10.952 145.368 10.172 142.222 9.314C139.804 8.664 138.062 7.962 138.062 6.298C138.062 4.4 139.674 3.62 141.494 3.62C143.73 3.62 144.874 4.712 145.108 6.922ZM157.729 6.194C155.415 6.194 153.855 7.546 153.361 9.002V6.558H150.241V25.174H153.335V17.556H153.361C153.907 19.168 155.415 20.39 157.729 20.39C161.291 20.39 163.839 17.426 163.839 13.24C163.839 9.08 161.291 6.194 157.729 6.194ZM156.975 17.894C154.349 17.894 153.127 15.892 153.127 13.24V12.954C153.231 10.458 154.661 8.664 156.975 8.664C159.341 8.664 160.797 10.692 160.797 13.24C160.797 15.84 159.393 17.894 156.975 17.894ZM176.369 16.906V11.732C176.369 8.846 175.225 6.168 170.753 6.168C167.165 6.168 165.423 8.456 165.293 10.666H168.231C168.309 9.314 169.349 8.508 170.805 8.508C172.443 8.508 173.405 9.236 173.405 10.354C173.405 11.472 172.677 11.732 170.909 12.018C168.985 12.33 164.409 12.434 164.409 16.334C164.409 18.466 166.125 20.338 169.141 20.338C171.715 20.338 172.937 19.038 173.405 17.816H173.431V18.206C173.431 18.83 173.457 19.454 173.561 20H176.629C176.421 19.298 176.369 17.92 176.369 16.906ZM173.483 13.812C173.483 16.802 171.741 18.128 169.895 18.128C168.335 18.128 167.399 17.348 167.399 16.282C167.399 15.086 168.361 14.566 170.207 14.228C172.417 13.838 173.171 13.214 173.483 12.408V13.812ZM190.889 15.658H188.003C187.535 17.192 186.339 17.972 184.675 17.972C182.387 17.972 180.619 16.152 180.619 13.292C180.619 10.38 182.413 8.586 184.675 8.586C186.443 8.586 187.457 9.47 187.951 10.822H190.837C190.317 8.066 188.055 6.194 184.727 6.194C180.697 6.194 177.655 8.976 177.655 13.292C177.655 17.556 180.697 20.364 184.727 20.364C187.951 20.364 190.265 18.7 190.889 15.658ZM204.719 13.526C204.693 9.73 202.821 6.194 198.245 6.194C194.319 6.194 191.459 9.158 191.459 13.24C191.459 17.478 194.215 20.364 198.245 20.364C201.417 20.364 203.731 18.752 204.537 16.022H201.547C201.053 17.374 199.779 17.946 198.245 17.946C196.139 17.946 194.579 16.542 194.371 14.098H204.719V13.526ZM194.423 11.914C194.735 9.86 196.139 8.534 198.219 8.534C200.299 8.534 201.521 9.808 201.729 11.914H194.423Z" fill="#8B8B8B"/>
</svg>
