<svg width="226" height="27" viewBox="0 0 226 27" fill="none" xmlns="http://www.w3.org/2000/svg">
<path d="M16.028 0.507999L10.96 16.58L5.78 0.535998L0.516 0.507999V20.5H3.848V4.344H3.876L9.112 20.5H12.696L17.904 4.344H17.96V20.5H21.264V0.507999H16.028ZM30.5487 20.892C34.8327 20.892 37.9967 17.812 37.9967 13.276C37.9967 8.74 34.8327 5.632 30.5487 5.632C26.2647 5.632 23.1007 8.74 23.1007 13.276C23.1007 17.812 26.2647 20.892 30.5487 20.892ZM30.5487 18.26C28.1407 18.26 26.3487 16.188 26.3487 13.276C26.3487 10.336 28.1687 8.292 30.5487 8.292C32.9567 8.292 34.7487 10.336 34.7487 13.276C34.7487 16.188 32.9567 18.26 30.5487 18.26ZM55.4797 5.632C53.4077 5.632 51.7557 7.06 51.3357 8.712C50.8317 6.752 49.2357 5.632 47.0237 5.632C44.7837 5.632 43.3277 6.92 42.8797 8.964H42.8517V6.024H39.6597V20.5H42.8517V13.052C42.8517 10.224 43.6917 8.292 45.8757 8.292C47.8917 8.292 48.5357 9.832 48.5357 12.016V20.5H51.6717V13.052C51.6717 9.58 52.8757 8.292 54.6397 8.292C56.5717 8.292 57.3277 9.58 57.3277 12.016V20.5H60.4917V10.84C60.4917 7.564 58.7557 5.632 55.4797 5.632ZM76.3408 13.528C76.3128 9.44 74.2968 5.632 69.3688 5.632C65.1408 5.632 62.0608 8.824 62.0608 13.22C62.0608 17.784 65.0288 20.892 69.3688 20.892C72.7848 20.892 75.2768 19.156 76.1448 16.216H72.9248C72.3928 17.672 71.0208 18.288 69.3688 18.288C67.1008 18.288 65.4208 16.776 65.1968 14.144H76.3408V13.528ZM65.2528 11.792C65.5888 9.58 67.1008 8.152 69.3408 8.152C71.5808 8.152 72.8968 9.524 73.1208 11.792H65.2528ZM85.605 5.632C83.197 5.632 81.797 7.088 81.293 8.796V6.024H78.073V20.5H81.321V13.164C81.321 9.608 82.805 8.292 84.793 8.292C86.837 8.292 87.593 9.776 87.593 12.128V20.5H90.813V11.456C90.813 8.124 89.357 5.632 85.605 5.632ZM100.054 8.544V6.024H97.2257V1.208H97.1137L94.0057 2.776V6.024H91.7657V8.544H94.0057V15.908C94.0057 18.456 95.0417 20.5 98.2057 20.5H99.7457V18.008H98.8777C97.6457 18.008 97.2257 16.972 97.2257 15.516V8.544H100.054ZM109.423 10.364H112.503C112.167 7.228 109.815 5.632 106.679 5.632C103.711 5.632 101.135 7.396 101.135 10.028C101.135 12.66 103.459 13.752 105.783 14.284C108.107 14.844 109.535 15.068 109.535 16.496C109.535 17.84 108.247 18.4 106.875 18.4C105.195 18.4 104.215 17.672 103.935 16.076H100.715C101.051 19.548 103.851 20.892 106.819 20.892C110.011 20.892 112.783 19.212 112.783 16.328C112.783 14.004 110.935 12.8 108.387 12.24C105.951 11.68 104.271 11.288 104.271 9.888C104.271 8.852 105.363 8.096 106.623 8.096C107.939 8.096 109.199 8.768 109.423 10.364ZM126.099 20.892C130.383 20.892 133.547 17.812 133.547 13.276C133.547 8.74 130.383 5.632 126.099 5.632C121.815 5.632 118.651 8.74 118.651 13.276C118.651 17.812 121.815 20.892 126.099 20.892ZM126.099 18.26C123.691 18.26 121.899 16.188 121.899 13.276C121.899 10.336 123.719 8.292 126.099 8.292C128.507 8.292 130.299 10.336 130.299 13.276C130.299 16.188 128.507 18.26 126.099 18.26ZM141.174 3.056H141.958V0.507999H140.306C137.17 0.507999 136.246 2.272 136.246 4.82V6.024H134.23V8.544H136.246V20.5H139.438V8.544H141.902V6.024H139.438V4.96C139.438 3.448 139.914 3.056 141.174 3.056ZM159.527 6.416H162.915C162.663 2.048 159.751 0.0319998 155.691 0.0319998C152.079 0.0319998 148.495 1.936 148.551 5.772C148.607 9.692 151.995 10.868 155.299 11.764C157.847 12.464 160.087 12.884 160.087 15.068C160.087 17.14 158.127 18.148 155.887 18.148C153.283 18.148 151.379 16.692 151.295 14.004H147.823C148.047 18.764 151.463 20.976 155.887 20.976C159.555 20.976 163.447 19.128 163.447 15.04C163.447 10.756 159.807 9.916 156.419 8.992C153.815 8.292 151.939 7.536 151.939 5.744C151.939 3.7 153.675 2.86 155.635 2.86C158.043 2.86 159.275 4.036 159.527 6.416ZM173.454 5.632C170.962 5.632 169.282 7.088 168.75 8.656V6.024H165.39V26.072H168.722V17.868H168.75C169.338 19.604 170.962 20.92 173.454 20.92C177.29 20.92 180.034 17.728 180.034 13.22C180.034 8.74 177.29 5.632 173.454 5.632ZM172.642 18.232C169.814 18.232 168.498 16.076 168.498 13.22V12.912C168.61 10.224 170.15 8.292 172.642 8.292C175.19 8.292 176.758 10.476 176.758 13.22C176.758 16.02 175.246 18.232 172.642 18.232ZM193.863 17.168V11.596C193.863 8.488 192.631 5.604 187.815 5.604C183.951 5.604 182.075 8.068 181.935 10.448H185.099C185.183 8.992 186.303 8.124 187.871 8.124C189.635 8.124 190.671 8.908 190.671 10.112C190.671 11.316 189.887 11.596 187.983 11.904C185.911 12.24 180.983 12.352 180.983 16.552C180.983 18.848 182.831 20.864 186.079 20.864C188.851 20.864 190.167 19.464 190.671 18.148H190.699V18.568C190.699 19.24 190.727 19.912 190.839 20.5H194.143C193.919 19.744 193.863 18.26 193.863 17.168ZM190.755 13.836C190.755 17.056 188.879 18.484 186.891 18.484C185.211 18.484 184.203 17.644 184.203 16.496C184.203 15.208 185.239 14.648 187.227 14.284C189.607 13.864 190.419 13.192 190.755 12.324V13.836ZM209.834 15.824H206.726C206.222 17.476 204.934 18.316 203.142 18.316C200.678 18.316 198.774 16.356 198.774 13.276C198.774 10.14 200.706 8.208 203.142 8.208C205.046 8.208 206.138 9.16 206.67 10.616H209.778C209.218 7.648 206.782 5.632 203.198 5.632C198.858 5.632 195.582 8.628 195.582 13.276C195.582 17.868 198.858 20.892 203.198 20.892C206.67 20.892 209.162 19.1 209.834 15.824ZM225.063 13.528C225.035 9.44 223.019 5.632 218.091 5.632C213.863 5.632 210.783 8.824 210.783 13.22C210.783 17.784 213.751 20.892 218.091 20.892C221.507 20.892 223.999 19.156 224.867 16.216H221.647C221.115 17.672 219.743 18.288 218.091 18.288C215.823 18.288 214.143 16.776 213.919 14.144H225.063V13.528ZM213.975 11.792C214.311 9.58 215.823 8.152 218.063 8.152C220.303 8.152 221.619 9.524 221.843 11.792H213.975Z" fill="#8B8B8B"/>
</svg>
