<svg width="26" height="14" viewBox="0 0 26 14" fill="none" xmlns="http://www.w3.org/2000/svg">
<path d="M14.6655 6.99988C14.6655 10.8659 11.3825 14 7.33264 14C3.28274 14 0 10.8668 0 6.99988C0 3.13296 3.28299 0 7.33264 0C11.3823 0 14.6655 3.13391 14.6655 6.99988ZM22.7098 6.99988C22.7098 10.6392 21.0682 13.5892 19.0433 13.5892C17.0185 13.5892 15.3769 10.6383 15.3769 6.99988C15.3769 3.36148 17.0185 0.410536 19.0433 0.410536C21.0682 0.410536 22.7098 3.36148 22.7098 6.99988ZM26 6.99988C26 10.2606 25.4226 12.9037 24.7105 12.9037C23.9983 12.9037 23.4209 10.2596 23.4209 6.99988C23.4209 3.74015 23.9983 1.0961 24.7107 1.0961C25.4231 1.0961 26 3.73944 26 6.99988Z" fill="#8B8B8B"/>
</svg>
