<svg width="57" height="56" viewBox="0 0 57 56" fill="none" xmlns="http://www.w3.org/2000/svg">
<circle cx="28.9844" cy="28" r="28" fill="#454545"/>
<path d="M21.3524 22.358H24.9684C24.9684 22.198 25.0004 22.07 25.0004 21.942C25.2564 20.182 26.4084 19.03 28.5204 19.03C30.6004 19.03 31.9124 20.182 31.9124 22.23C31.9124 24.31 30.5684 25.206 28.4564 25.366C27.8804 25.398 27.4964 25.398 26.8884 25.398V28.534C27.2404 28.502 27.7844 28.502 28.1684 28.502C30.9204 28.502 32.9684 29.75 32.9684 32.278C32.9684 34.742 31.3364 36.374 28.6484 36.374C26.2164 36.374 24.4884 35.126 24.2004 32.694V32.406H20.4564V32.758C20.9044 37.014 23.9124 39.446 28.7124 39.446C33.7684 39.446 36.5844 36.31 36.5844 32.662C36.5844 29.59 35.0484 27.51 31.9764 26.87C34.0244 26.166 35.5604 24.47 35.5604 21.814C35.5604 18.166 32.8724 15.958 28.5844 15.958C24.1684 15.958 21.5764 18.55 21.3524 22.358Z" fill="white"/>
</svg>
