<svg width="15" height="14" viewBox="0 0 15 14" fill="none" xmlns="http://www.w3.org/2000/svg">
<path d="M14.0454 0.663819C13.9695 0.588261 13.8736 0.535946 13.769 0.513028C13.6644 0.49011 13.5554 0.49754 13.4548 0.534444L1.07981 5.03444C0.973083 5.07492 0.8812 5.14692 0.816361 5.24086C0.751523 5.3348 0.716797 5.44624 0.716797 5.56038C0.716797 5.67453 0.751523 5.78597 0.816361 5.87991C0.8812 5.97385 0.973083 6.04584 1.07981 6.08632L5.91168 8.01569L9.47793 4.43819L10.2711 5.23132L6.68793 8.81444L8.62293 13.6463C8.66462 13.751 8.73677 13.8407 8.83004 13.9039C8.92331 13.9671 9.0334 14.0008 9.14606 14.0007C9.25973 13.9984 9.37003 13.9616 9.46241 13.8954C9.55479 13.8291 9.62492 13.7364 9.66356 13.6294L14.1636 1.25444C14.2019 1.15492 14.2111 1.04656 14.1902 0.941989C14.1693 0.837416 14.1191 0.740944 14.0454 0.663819Z" fill="#6E6E6E"/>
</svg>
