<svg width="18" height="20" viewBox="0 0 18 20" fill="none" xmlns="http://www.w3.org/2000/svg">
<path d="M17.1011 4.7614V8.08761C16.9409 8.08761 16.7771 8.11254 16.6097 8.11254C15.7234 8.11212 14.8512 7.8912 14.0716 7.46969C13.292 7.04819 12.6295 6.43934 12.1439 5.69801V13.9103C12.1474 15.1115 11.7945 16.2867 11.13 17.2874C10.4654 18.288 9.51893 19.069 8.41037 19.5316C7.30181 19.9943 6.08094 20.1177 4.90222 19.8863C3.7235 19.6549 2.6399 19.079 1.78852 18.2316C0.937142 17.3842 0.356235 16.3034 0.119296 15.1257C-0.117643 13.9481 3.25618e-05 12.7267 0.457437 11.616C0.914841 10.5052 1.69142 9.55514 2.68892 8.88588C3.68642 8.21661 4.86002 7.85825 6.06123 7.85613C6.18944 7.85613 6.31052 7.85613 6.43516 7.85613V10.8511C6.31131 10.8321 6.18646 10.8202 6.06123 10.8155C5.25723 10.8428 4.49526 11.1813 3.93613 11.7597C3.37701 12.3381 3.06447 13.1111 3.06447 13.9156C3.06447 14.7201 3.37701 15.4931 3.93613 16.0715C4.49526 16.6499 5.25723 16.9884 6.06123 17.0157C7.7742 17.0157 9.28417 15.666 9.28417 13.953C9.28417 13.8853 9.31622 0 9.31622 0H12.1652C12.2984 1.24673 12.8658 2.40689 13.7682 3.27738C14.6706 4.14787 15.8504 4.6732 17.1011 4.7614V4.7614Z" fill="#8B8B8B"/>
</svg>
