<svg width="195" height="24" viewBox="0 0 195 24" fill="none" xmlns="http://www.w3.org/2000/svg">
<path d="M10.0723 3.862H0.807285V5.596H4.41129V16H6.46829V5.596H10.0723V3.862ZM16.0046 6.973C14.5426 6.973 13.6926 7.857 13.3866 8.894L13.4036 7.245V3.862H11.4316V16H13.4036V11.546C13.4036 9.387 14.3046 8.588 15.5116 8.588C16.7526 8.588 17.2116 9.489 17.2116 10.917V16H19.1666V10.509C19.1666 8.486 18.2826 6.973 16.0046 6.973ZM28.4543 13.977V10.594C28.4543 8.707 27.7063 6.956 24.7823 6.956C22.4363 6.956 21.2973 8.452 21.2123 9.897H23.1333C23.1843 9.013 23.8643 8.486 24.8163 8.486C25.8873 8.486 26.5163 8.962 26.5163 9.693C26.5163 10.424 26.0403 10.594 24.8843 10.781C23.6263 10.985 20.6343 11.053 20.6343 13.603C20.6343 14.997 21.7563 16.221 23.7283 16.221C25.4113 16.221 26.2103 15.371 26.5163 14.572H26.5333V14.827C26.5333 15.235 26.5503 15.643 26.6183 16H28.6243C28.4883 15.541 28.4543 14.64 28.4543 13.977ZM26.5673 11.954C26.5673 13.909 25.4283 14.776 24.2213 14.776C23.2013 14.776 22.5893 14.266 22.5893 13.569C22.5893 12.787 23.2183 12.447 24.4253 12.226C25.8703 11.971 26.3633 11.563 26.5673 11.036V11.954ZM35.0632 6.973C33.6012 6.973 32.7512 7.857 32.4452 8.894V7.211H30.4902V16H32.4622V11.546C32.4622 9.387 33.3632 8.588 34.5702 8.588C35.8112 8.588 36.2702 9.489 36.2702 10.917V16H38.2252V10.509C38.2252 8.486 37.3412 6.973 35.0632 6.973ZM45.8299 16H48.2439L44.2999 10.968L47.9719 7.211H45.6089L42.1409 10.849V3.862H40.1689V16H42.1409V13.178L42.9909 12.311L45.8299 16ZM51.9891 7.211C53.0941 10.101 54.2161 12.889 55.4911 16.204L55.2361 16.901C55.0151 17.513 54.7941 17.836 54.0801 17.836H53.1281V19.4H54.6241C55.8141 19.4 56.4941 18.788 56.8851 17.734C59.1291 11.563 58.6021 13.178 60.7611 7.211H58.6871C57.9391 9.557 57.1571 11.835 56.5111 13.96H56.4771C55.6781 11.648 54.8791 9.523 54.0631 7.211H51.9891ZM65.797 16.238C68.398 16.238 70.319 14.368 70.319 11.614C70.319 8.86 68.398 6.973 65.797 6.973C63.196 6.973 61.275 8.86 61.275 11.614C61.275 14.368 63.196 16.238 65.797 16.238ZM65.797 14.64C64.335 14.64 63.247 13.382 63.247 11.614C63.247 9.829 64.352 8.588 65.797 8.588C67.259 8.588 68.347 9.829 68.347 11.614C68.347 13.382 67.259 14.64 65.797 14.64ZM77.5559 7.211V11.665C77.5559 13.824 76.6379 14.623 75.4309 14.623C74.1899 14.623 73.7479 13.722 73.7479 12.294V7.211H71.7759V12.702C71.7759 14.725 72.6599 16.238 74.9549 16.238C76.3999 16.238 77.2499 15.354 77.5559 14.317V16H79.5109V7.211H77.5559ZM88.764 5.409H89.24V3.862H88.237C86.333 3.862 85.772 4.933 85.772 6.48V7.211H84.548V8.741H85.772V16H87.71V8.741H89.206V7.211H87.71V6.565C87.71 5.647 87.999 5.409 88.764 5.409ZM94.4845 16.238C97.0855 16.238 99.0065 14.368 99.0065 11.614C99.0065 8.86 97.0855 6.973 94.4845 6.973C91.8835 6.973 89.9625 8.86 89.9625 11.614C89.9625 14.368 91.8835 16.238 94.4845 16.238ZM94.4845 14.64C93.0225 14.64 91.9345 13.382 91.9345 11.614C91.9345 9.829 93.0395 8.588 94.4845 8.588C95.9465 8.588 97.0345 9.829 97.0345 11.614C97.0345 13.382 95.9465 14.64 94.4845 14.64ZM105.121 9.013V7.041C103.727 7.109 102.877 7.891 102.537 9.081H102.503V7.211H100.565V16H102.537V11.835C102.537 10.101 103.455 9.03 105.121 9.013ZM114.821 9.846H116.691C116.487 7.942 115.059 6.973 113.155 6.973C111.353 6.973 109.789 8.044 109.789 9.642C109.789 11.24 111.2 11.903 112.611 12.226C114.022 12.566 114.889 12.702 114.889 13.569C114.889 14.385 114.107 14.725 113.274 14.725C112.254 14.725 111.659 14.283 111.489 13.314H109.534C109.738 15.422 111.438 16.238 113.24 16.238C115.178 16.238 116.861 15.218 116.861 13.467C116.861 12.056 115.739 11.325 114.192 10.985C112.713 10.645 111.693 10.407 111.693 9.557C111.693 8.928 112.356 8.469 113.121 8.469C113.92 8.469 114.685 8.877 114.821 9.846ZM122.935 6.973C121.473 6.973 120.623 7.857 120.317 8.894L120.334 7.245V3.862H118.362V16H120.334V11.546C120.334 9.387 121.235 8.588 122.442 8.588C123.683 8.588 124.142 9.489 124.142 10.917V16H126.097V10.509C126.097 8.486 125.213 6.973 122.935 6.973ZM135.385 13.977V10.594C135.385 8.707 134.637 6.956 131.713 6.956C129.367 6.956 128.228 8.452 128.143 9.897H130.064C130.115 9.013 130.795 8.486 131.747 8.486C132.818 8.486 133.447 8.962 133.447 9.693C133.447 10.424 132.971 10.594 131.815 10.781C130.557 10.985 127.565 11.053 127.565 13.603C127.565 14.997 128.687 16.221 130.659 16.221C132.342 16.221 133.141 15.371 133.447 14.572H133.464V14.827C133.464 15.235 133.481 15.643 133.549 16H135.555C135.419 15.541 135.385 14.64 135.385 13.977ZM133.498 11.954C133.498 13.909 132.359 14.776 131.152 14.776C130.132 14.776 129.52 14.266 129.52 13.569C129.52 12.787 130.149 12.447 131.356 12.226C132.801 11.971 133.294 11.563 133.498 11.036V11.954ZM141.977 9.013V7.041C140.583 7.109 139.733 7.891 139.393 9.081H139.359V7.211H137.421V16H139.393V11.835C139.393 10.101 140.311 9.03 141.977 9.013ZM145.387 5.834V3.896H143.33V5.834H145.387ZM143.381 16H145.336V7.211H143.381V16ZM151.971 6.973C150.509 6.973 149.659 7.857 149.353 8.894V7.211H147.398V16H149.37V11.546C149.37 9.387 150.271 8.588 151.478 8.588C152.719 8.588 153.178 9.489 153.178 10.917V16H155.133V10.509C155.133 8.486 154.249 6.973 151.971 6.973ZM163.486 7.211V8.758H163.469C163.061 7.772 162.024 6.973 160.596 6.973C158.182 6.973 156.601 8.758 156.601 11.461C156.601 14.164 158.182 15.932 160.596 15.932C162.024 15.932 163.061 15.184 163.469 14.198H163.486V15.371C163.486 17.02 162.636 17.751 161.259 17.751C160.018 17.751 159.185 17.343 158.998 16.272H157.06C157.281 18.074 158.913 19.298 161.276 19.298C163.554 19.298 165.509 18.023 165.509 15.15V7.211H163.486ZM158.658 11.461C158.658 9.846 159.559 8.588 161.123 8.588C162.687 8.588 163.588 9.897 163.588 11.512C163.588 13.025 162.857 14.317 161.123 14.317C159.542 14.317 158.658 13.076 158.658 11.461Z" fill="#8B8B8B"/>
<circle cx="185" cy="10" r="10" fill="#BCD2D7"/>
<path d="M181 11.0159L183.667 14L189 6" stroke="white"/>
</svg>
